<?xml version="1.0" encoding="UTF-8"?>
<svg width="312px" height="410px" viewBox="0 0 312 410" version="1.1" xmlns="http://www.w3.org/2000/svg" xmlns:xlink="http://www.w3.org/1999/xlink">
    <!-- Generator: Sketch 49.3 (51167) - http://www.bohemiancoding.com/sketch -->
    <title>Group 25</title>
    <desc>Created with Sketch.</desc>
    <defs></defs>
    <g id="UI-V2" stroke="none" stroke-width="1" fill="none" fill-rule="evenodd">
        <g id="Group-25" fill="#FDBA4D" fill-rule="nonzero">
            <path d="M88,235.866025 L47.1807806,259.433013 L47.1807806,306.566987 L88,330.133975 L128.819219,306.566987 L128.819219,259.433013 L88,235.866025 Z M130.319219,258.566987 L130.319219,307.433013 L88,331.866025 L45.6807806,307.433013 L45.6807806,258.566987 L88,234.133975 L130.319219,258.566987 Z" id="Polygon-Copy"></path>
            <path d="M2.18078062,337.433013 L2.18078062,384.566987 L43,408.133975 L83.8192194,384.566987 L83.8192194,337.433013 L43,313.866025 L2.18078062,337.433013 Z M85.3192194,336.566987 L85.3192194,385.433013 L43,409.866025 L0.680780618,385.433013 L0.680780618,336.566987 L43,312.133975 L85.3192194,336.566987 Z" id="Polygon-Copy-7"></path>
            <path d="M183.180781,180.433013 L183.180781,227.566987 L224,251.133975 L264.819219,227.566987 L264.819219,180.433013 L224,156.866025 L183.180781,180.433013 Z M266.319219,179.566987 L266.319219,228.433013 L224,252.866025 L181.680781,228.433013 L181.680781,179.566987 L224,155.133975 L266.319219,179.566987 Z" id="Polygon-Copy-3"></path>
            <path d="M93.1807806,180.433013 L93.1807806,227.566987 L134,251.133975 L174.819219,227.566987 L174.819219,180.433013 L134,156.866025 L93.1807806,180.433013 Z M176.319219,179.566987 L176.319219,228.433013 L134,252.866025 L91.6807806,228.433013 L91.6807806,179.566987 L134,155.133975 L176.319219,179.566987 Z" id="Polygon-Copy-8"></path>
            <path d="M228.180781,103.433013 L228.180781,150.566987 L269,174.133975 L309.819219,150.566987 L309.819219,103.433013 L269,79.8660254 L228.180781,103.433013 Z M311.319219,102.566987 L311.319219,151.433013 L269,175.866025 L226.680781,151.433013 L226.680781,102.566987 L269,78.1339746 L311.319219,102.566987 Z" id="Polygon-Copy-5"></path>
            <path d="M183.180781,25.4330127 L183.180781,72.5669873 L224,96.1339746 L264.819219,72.5669873 L264.819219,25.4330127 L224,1.8660254 L183.180781,25.4330127 Z M266.319219,24.5669873 L266.319219,73.4330127 L224,97.8660254 L181.680781,73.4330127 L181.680781,24.5669873 L224,0.133974596 L266.319219,24.5669873 Z" id="Polygon-Copy-6"></path>
            <path d="M2.18078062,180.433013 L2.18078062,227.566987 L43,251.133975 L83.8192194,227.566987 L83.8192194,180.433013 L43,156.866025 L2.18078062,180.433013 Z M85.3192194,179.566987 L85.3192194,228.433013 L43,252.866025 L0.680780618,228.433013 L0.680780618,179.566987 L43,155.133975 L85.3192194,179.566987 Z" id="Polygon-Copy-9"></path>
        </g>
    </g>
</svg>