<?xml version="1.0" encoding="UTF-8"?>
<svg width="359px" height="254px" viewBox="0 0 359 254" version="1.1" xmlns="http://www.w3.org/2000/svg" xmlns:xlink="http://www.w3.org/1999/xlink">
    <!-- Generator: Sketch 49.3 (51167) - http://www.bohemiancoding.com/sketch -->
    <title>Group 22</title>
    <desc>Created with Sketch.</desc>
    <defs></defs>
    <g id="UI-V2" stroke="none" stroke-width="1" fill="none" fill-rule="evenodd">
        <g id="Group-22" fill="#FDBA4D" fill-rule="nonzero">
            <path d="M2.18078062,104.433013 L2.18078062,151.566987 L43,175.133975 L83.8192194,151.566987 L83.8192194,104.433013 L43,80.8660254 L2.18078062,104.433013 Z M85.3192194,103.566987 L85.3192194,152.433013 L43,176.866025 L0.680780618,152.433013 L0.680780618,103.566987 L43,79.1339746 L85.3192194,103.566987 Z" id="Polygon"></path>
            <path d="M94.1807806,104.433013 L94.1807806,151.566987 L135,175.133975 L175.819219,151.566987 L175.819219,104.433013 L135,80.8660254 L94.1807806,104.433013 Z M177.319219,103.566987 L177.319219,152.433013 L135,176.866025 L92.6807806,152.433013 L92.6807806,103.566987 L135,79.1339746 L177.319219,103.566987 Z" id="Polygon-Copy"></path>
            <path d="M48.1807806,25.4330127 L48.1807806,72.5669873 L89,96.1339746 L129.819219,72.5669873 L129.819219,25.4330127 L89,1.8660254 L48.1807806,25.4330127 Z M131.319219,24.5669873 L131.319219,73.4330127 L89,97.8660254 L46.6807806,73.4330127 L46.6807806,24.5669873 L89,0.133974596 L131.319219,24.5669873 Z" id="Polygon-Copy-2"></path>
            <path d="M142.180781,181.433013 L142.180781,228.566987 L183,252.133975 L223.819219,228.566987 L223.819219,181.433013 L183,157.866025 L142.180781,181.433013 Z M225.319219,180.566987 L225.319219,229.433013 L183,253.866025 L140.680781,229.433013 L140.680781,180.566987 L183,156.133975 L225.319219,180.566987 Z" id="Polygon-Copy-3"></path>
            <path d="M185.180781,101.433013 L185.180781,148.566987 L226,172.133975 L266.819219,148.566987 L266.819219,101.433013 L226,77.8660254 L185.180781,101.433013 Z M268.319219,100.566987 L268.319219,149.433013 L226,173.866025 L183.680781,149.433013 L183.680781,100.566987 L226,76.1339746 L268.319219,100.566987 Z" id="Polygon-Copy-4"></path>
            <path d="M275.180781,102.433013 L275.180781,149.566987 L316,173.133975 L356.819219,149.566987 L356.819219,102.433013 L316,78.8660254 L275.180781,102.433013 Z M358.319219,101.566987 L358.319219,150.433013 L316,174.866025 L273.680781,150.433013 L273.680781,101.566987 L316,77.1339746 L358.319219,101.566987 Z" id="Polygon-Copy-5"></path>
        </g>
    </g>
</svg>