<?xml version="1.0" encoding="UTF-8"?>
<svg width="312px" height="256px" viewBox="0 0 312 256" version="1.1" xmlns="http://www.w3.org/2000/svg" xmlns:xlink="http://www.w3.org/1999/xlink">
    <!-- Generator: Sketch 49.3 (51167) - http://www.bohemiancoding.com/sketch -->
    <title>Group 24</title>
    <desc>Created with Sketch.</desc>
    <defs></defs>
    <g id="UI-V2" stroke="none" stroke-width="1" fill="none" fill-rule="evenodd">
        <g id="Group-24" fill="#FDBA4D" fill-rule="nonzero">
            <path d="M46.1807806,104.433013 L46.1807806,151.566987 L87,175.133975 L127.819219,151.566987 L127.819219,104.433013 L87,80.8660254 L46.1807806,104.433013 Z M129.319219,103.566987 L129.319219,152.433013 L87,176.866025 L44.6807806,152.433013 L44.6807806,103.566987 L87,79.1339746 L129.319219,103.566987 Z" id="Polygon-Copy-11"></path>
            <path d="M183.180781,25.4330127 L183.180781,72.5669873 L224,96.1339746 L264.819219,72.5669873 L264.819219,25.4330127 L224,1.8660254 L183.180781,25.4330127 Z M266.319219,24.5669873 L266.319219,73.4330127 L224,97.8660254 L181.680781,73.4330127 L181.680781,24.5669873 L224,0.133974596 L266.319219,24.5669873 Z" id="Polygon-Copy-16"></path>
            <path d="M137.180781,104.433013 L137.180781,151.566987 L178,175.133975 L218.819219,151.566987 L218.819219,104.433013 L178,80.8660254 L137.180781,104.433013 Z M220.319219,103.566987 L220.319219,152.433013 L178,176.866025 L135.680781,152.433013 L135.680781,103.566987 L178,79.1339746 L220.319219,103.566987 Z" id="Polygon-Copy-13"></path>
            <path d="M228.180781,104.433013 L228.180781,151.566987 L269,175.133975 L309.819219,151.566987 L309.819219,104.433013 L269,80.8660254 L228.180781,104.433013 Z M311.319219,103.566987 L311.319219,152.433013 L269,176.866025 L226.680781,152.433013 L226.680781,103.566987 L269,79.1339746 L311.319219,103.566987 Z" id="Polygon-Copy-14"></path>
            <path d="M183.180781,183.433013 L183.180781,230.566987 L224,254.133975 L264.819219,230.566987 L264.819219,183.433013 L224,159.866025 L183.180781,183.433013 Z M266.319219,182.566987 L266.319219,231.433013 L224,255.866025 L181.680781,231.433013 L181.680781,182.566987 L224,158.133975 L266.319219,182.566987 Z" id="Polygon-Copy-15"></path>
            <path d="M2.18078062,183.433013 L2.18078062,230.566987 L43,254.133975 L83.8192194,230.566987 L83.8192194,183.433013 L43,159.866025 L2.18078062,183.433013 Z M85.3192194,182.566987 L85.3192194,231.433013 L43,255.866025 L0.680780618,231.433013 L0.680780618,182.566987 L43,158.133975 L85.3192194,182.566987 Z" id="Polygon-Copy-17"></path>
        </g>
    </g>
</svg>