<?xml version="1.0" encoding="UTF-8"?>
<svg width="43px" height="43px" viewBox="0 0 43 43" version="1.1" xmlns="http://www.w3.org/2000/svg" xmlns:xlink="http://www.w3.org/1999/xlink">
    <!-- Generator: sketchtool 50.2 (55047) - http://www.bohemiancoding.com/sketch -->
    <title>AE12B05A-F1A0-42A8-8BAE-8FC48C7973F4</title>
    <desc>Created with sketchtool.</desc>
    <defs>
        <polygon id="path-1" points="0.128272385 42.9788525 33.0142094 42.9788525 33.0142094 0.0133707452 0.128272385 0.0133707452"></polygon>
        <polygon id="path-3" points="0.128272385 42.9788525 33.0142094 42.9788525 33.0142094 0.0133707452 0.128272385 0.0133707452"></polygon>
    </defs>
    <g id="UI" stroke="none" stroke-width="1" fill="none" fill-rule="evenodd">
        <g id="D-Join" transform="translate(-137.000000, -438.000000)">
            <g id="Slack-logo" transform="translate(137.000000, 438.000000)">
                <g id="Group-4" transform="translate(4.934426, 0.000000)">
                    <g id="Fill-1-Clipped">
                        <mask id="mask-2" fill="white">
                            <use xlink:href="#path-1"></use>
                        </mask>
                        <g id="path-1"></g>
                        <path d="M22.9422623,2.66036066 C22.2888033,0.648877049 20.128582,-0.451852459 18.1174508,0.201959016 C16.1059672,0.855418033 15.0052377,3.01563934 15.6590492,5.02677049 L25.5603279,35.4905082 C26.2402213,37.3694672 28.2700328,38.4254344 30.2184262,37.8646721 C32.2507049,37.2795902 33.4895984,35.1211311 32.8410738,33.1251557 C32.8164016,33.0490246 22.9422623,2.66036066 22.9422623,2.66036066" id="Fill-1" fill="#DFA22F" fill-rule="nonzero" mask="url(#mask-2)"></path>
                    </g>
                    <g id="Fill-3-Clipped">
                        <mask id="mask-4" fill="white">
                            <use xlink:href="#path-3"></use>
                        </mask>
                        <g id="path-1"></g>
                        <path d="M7.60042623,7.64518852 C6.94661475,5.63405738 4.78639344,4.53332787 2.7752623,5.18678689 C0.763778689,5.8402459 -0.33695082,8.00046721 0.316860656,10.0119508 L10.2181393,40.4756885 C10.8980328,42.3546475 12.9278443,43.4106148 14.8762377,42.8495 C16.9085164,42.2647705 18.1474098,40.1063115 17.4988852,38.1099836 C17.4742131,38.0342049 7.60042623,7.64518852 7.60042623,7.64518852" id="Fill-3" fill="#3CB187" fill-rule="nonzero" mask="url(#mask-4)"></path>
                    </g>
                </g>
                <path d="M40.3396393,27.8904344 C42.351123,27.2369754 43.4515,25.0767541 42.798041,23.0652705 C42.144582,21.0541393 39.9843607,19.9534098 37.9732295,20.6068689 L7.5094918,30.5085 C5.63053279,31.188041 4.57456557,33.2178525 5.13532787,35.1662459 C5.72040984,37.1985246 7.87886885,38.437418 9.87484426,37.7888934 C9.95097541,37.7642213 40.3396393,27.8904344 40.3396393,27.8904344" id="Fill-5" fill="#CE1E5B" fill-rule="nonzero"></path>
                <path d="M13.8586885,36.4946639 C15.841623,35.8503689 18.3973033,35.0199754 21.1397869,34.128959 C20.4954918,32.1460246 19.6650984,29.5899918 18.7737295,26.8471557 L11.4922787,29.213918 L13.8586885,36.4946639" id="Fill-6" fill="#392538" fill-rule="nonzero"></path>
                <g id="Group-10" transform="translate(0.000000, 4.934426)" fill-rule="nonzero">
                    <path d="M29.200877,26.5750574 C31.953582,25.6808689 34.512082,24.849418 36.4819754,24.2093525 C35.8376803,22.226418 35.0069344,19.6696803 34.1155656,16.9261393 L26.8341148,19.2929016 L29.200877,26.5750574" id="Fill-7" fill="#BB242A"></path>
                    <path d="M35.3548115,7.61381967 C37.3659426,6.96036066 38.4666721,4.80013934 37.8132131,2.78865574 C37.1597541,0.77752459 34.9995328,-0.323204918 32.9880492,0.330254098 L2.52431148,10.2318852 C0.645352459,10.9114262 -0.410614754,12.9412377 0.1505,14.8896311 C0.735229508,16.9219098 2.89368852,18.1608033 4.89001639,17.5122787 C4.96579508,17.4876066 35.3548115,7.61381967 35.3548115,7.61381967" id="Fill-9" fill="#72C5CD"></path>
                </g>
                <path d="M8.87245082,21.1528279 C10.8553852,20.5085328 13.4117705,19.6777869 16.1546066,18.7867705 C15.260418,16.0337131 14.4289672,13.4752131 13.7889016,11.5049672 L6.50568852,13.872082 L8.87245082,21.1528279" id="Fill-11" fill="#238C73" fill-rule="nonzero"></path>
                <path d="M24.2142869,16.168 C26.9676967,15.273459 29.5265492,14.4420082 31.4967951,13.8015902 C30.6022541,11.0481803 29.7708033,8.48897541 29.1303852,6.51837705 L21.8475246,8.8854918 L24.2142869,16.168" id="Fill-12" fill="#62803A" fill-rule="nonzero"></path>
            </g>
        </g>
    </g>
</svg>