<?xml version="1.0" encoding="UTF-8"?>
<svg width="80px" height="82px" viewBox="0 0 80 82" version="1.1" xmlns="http://www.w3.org/2000/svg" xmlns:xlink="http://www.w3.org/1999/xlink">
    <!-- Generator: Sketch 49.3 (51167) - http://www.bohemiancoding.com/sketch -->
    <title>Page 1</title>
    <desc>Created with Sketch.</desc>
    <defs>
        <polygon id="path-1" points="0.435245192 0.917287975 13.4440385 0.917287975 13.4440385 14.0683481 0.435245192 14.0683481"></polygon>
        <polygon id="path-3" points="0 0.917696203 12.8858 0.917696203 12.8858 14.0677358 0 14.0677358"></polygon>
        <polygon id="path-5" points="0.217370192 0.69806962 13.2262644 0.69806962 13.2262644 13.8488236 0.217370192 13.8488236"></polygon>
        <polygon id="path-7" points="0.217370192 0.116038766 13.227274 0.116038766 13.227274 13.2674051 0.217370192 13.2674051"></polygon>
    </defs>
    <g id="Symbols" stroke="none" stroke-width="1" fill="none" fill-rule="evenodd">
        <g id="Footer" transform="translate(-138.000000, -20.000000)">
            <g id="Page-1" transform="translate(138.000000, 20.000000)">
                <path d="M34,27.6770004 L27.3234788,21 L20,28.3229996 L26.6775258,35 C28.0568312,31.6996771 30.6999139,29.0554001 34,27.6770004" id="Fill-1" fill="#FDBA4D"></path>
                <path d="M52.3229996,47 C50.9435953,50.3000861 48.3003229,52.9431688 45,54.3224742 L51.6770004,61 L59,53.6765212 L52.3229996,47 Z" id="Fill-3" fill="#FDBA4D"></path>
                <path d="M21.0963061,22.0963061 C23.6345646,19.5570386 23.6345646,15.4419525 21.0963061,12.9036939 C18.5570386,10.3654354 14.4419525,10.3654354 11.9036939,12.9036939 C9.36543536,15.4419525 9.36543536,19.5570386 11.9036939,22.0963061 C14.4419525,24.6345646 18.5570386,24.6345646 21.0963061,22.0963061" id="Fill-5" fill="#FDBA4D"></path>
                <path d="M57.9043767,59.9043767 C55.3652078,62.4425368 55.3652078,66.558472 57.9043767,69.0956233 C60.4425368,71.6347922 64.558472,71.6347922 67.0956233,69.0956233 C69.6347922,66.558472 69.6347922,62.4425368 67.0956233,59.9043767 C64.558472,57.3652078 60.4425368,57.3652078 57.9043767,59.9043767" id="Fill-7" fill="#FDBA4D"></path>
                <path d="M26.6770004,47 L20,53.6760422 L27.3229996,61 L34,54.3229533 C30.6996771,52.9437469 28.0564047,50.3008538 26.6770004,47" id="Fill-9" fill="#5DA9DD"></path>
                <path d="M52.3229996,35 L59,28.3234788 L51.6770004,21 L45,27.6775258 C48.3003229,29.0558266 50.9435953,31.6999139 52.3229996,35" id="Fill-11" fill="#5DA9DD"></path>
                <path d="M67.0956233,22.0963061 C69.6347922,19.5570386 69.6347922,15.4419525 67.0956233,12.9036939 C64.5574632,10.3654354 60.441528,10.3654354 57.9043767,12.9036939 C55.3652078,15.4419525 55.3652078,19.5570386 57.9043767,22.0963061 C60.441528,24.6345646 64.5574632,24.6345646 67.0956233,22.0963061" id="Fill-13" fill="#5DA9DD"></path>
                <path d="M11.9036939,59.9043767 C9.36543536,62.4425368 9.36543536,66.558472 11.9036939,69.0956233 C14.4429614,71.6347922 18.5580475,71.6347922 21.0963061,69.0956233 C23.6345646,66.558472 23.6345646,62.4425368 21.0963061,59.9043767 C18.5580475,57.3652078 14.4429614,57.3652078 11.9036939,59.9043767" id="Fill-15" fill="#5DA9DD"></path>
                <path d="M26,39 L17,39 L17,43 L26,43 C25.9029308,42.3450595 25.8375147,41.680807 25.8375147,41.0010347 C25.8375147,40.319193 25.9039859,39.6559752 26,39" id="Fill-17" fill="#18578C"></path>
                <path d="M53,43 L62,43 L62,39 L53,39 C53.0960141,39.6559752 53.1624853,40.319193 53.1624853,41 C53.1624853,41.680807 53.0960141,42.3450595 53,43" id="Fill-19" fill="#18578C"></path>
                <g id="Group-23" transform="translate(66.000000, 34.000000)">
                    <mask id="mask-2" fill="white">
                        <use xlink:href="#path-1"></use>
                    </mask>
                    <g id="Clip-22"></g>
                    <path d="M6.9391875,0.917287975 C3.34596635,0.917287975 0.435245192,3.86163133 0.435245192,7.49179747 C0.435245192,11.1240047 3.34596635,14.0683481 6.9391875,14.0683481 C10.5324087,14.0683481 13.4441394,11.1240047 13.4441394,7.49179747 C13.4441394,3.86163133 10.5324087,0.917287975 6.9391875,0.917287975" id="Fill-21" fill="#18578C" mask="url(#mask-2)"></path>
                </g>
                <g id="Group-26" transform="translate(0.000000, 34.000000)">
                    <mask id="mask-4" fill="white">
                        <use xlink:href="#path-3"></use>
                    </mask>
                    <g id="Clip-25"></g>
                    <path d="M12.8858,7.49322627 C12.8858,3.86101899 10.0008,0.917696203 6.4438,0.917696203 C2.8848,0.917696203 -0.0002,3.86101899 -0.0002,7.49322627 C-0.0002,11.124413 2.8848,14.0677358 6.4438,14.0677358 C10.0008,14.0677358 12.8858,11.124413 12.8858,7.49322627" id="Fill-24" fill="#18578C" mask="url(#mask-4)"></path>
                </g>
                <path d="M38,55 L38,64 L42,64 L42,55 C41.34489,55.0960141 40.6815006,55.1624853 40.0005175,55.1624853 C39.3184994,55.1624853 38.65511,55.0960141 38,55" id="Fill-27" fill="#18578C"></path>
                <path d="M42,27 L42,18 L38,18 L38,27 C38.65511,26.9029308 39.3184994,26.8375147 39.9994825,26.8375147 C40.6815006,26.8375147 41.34489,26.9029308 42,27" id="Fill-29" fill="#18578C"></path>
                <g id="Group-33" transform="translate(33.000000, 0.000000)">
                    <mask id="mask-6" fill="white">
                        <use xlink:href="#path-5"></use>
                    </mask>
                    <g id="Clip-32"></g>
                    <path d="M6.72232212,13.8488236 C10.3155433,13.8488236 13.2262644,10.9044802 13.2262644,7.27329351 C13.2262644,3.6421068 10.3155433,0.697763449 6.72232212,0.697763449 C3.12910096,0.697763449 0.217370192,3.6421068 0.217370192,7.27329351 C0.217370192,10.9044802 3.12910096,13.8488236 6.72232212,13.8488236" id="Fill-31" fill="#18578C" mask="url(#mask-6)"></path>
                </g>
                <g id="Group-36" transform="translate(33.000000, 68.000000)">
                    <mask id="mask-8" fill="white">
                        <use xlink:href="#path-7"></use>
                    </mask>
                    <g id="Clip-35"></g>
                    <path d="M6.72232212,0.116038766 C3.12910096,0.116038766 0.217370192,3.06038212 0.217370192,6.69156883 C0.217370192,10.3237761 3.12910096,13.2681195 6.72232212,13.2681195 C10.3155433,13.2681195 13.227274,10.3237761 13.227274,6.69156883 C13.227274,3.06038212 10.3155433,0.116038766 6.72232212,0.116038766" id="Fill-34" fill="#18578C" mask="url(#mask-8)"></path>
                </g>
                <path d="M50,41.0005174 C50,46.5227896 45.5238243,51 40.0005174,51 C34.4772104,51 30,46.5227896 30,41.0005174 C30,35.4772104 34.4772104,31 40.0005174,31 C45.5238243,31 50,35.4772104 50,41.0005174" id="Fill-37" fill="#18578C"></path>
            </g>
        </g>
    </g>
</svg>